<svg id="Layer_1" data-name="Layer 1" xmlns="http://www.w3.org/2000/svg" viewBox="0 0 10.289 10.289">
  <defs>
    <style>
      .cls-1 {
        fill: #2e2b29;
        fill-rule: evenodd;
      }
    </style>
  </defs>
  <title>8ff25c8a-8287-4175-bde6-ebd0ba5f21b2</title>
  <path class="cls-1" d="M10.289,8.359a1.93,1.93,0,0,1-1.929,1.93H1.929A1.93,1.93,0,0,1,0,8.359V1.93A1.93,1.93,0,0,1,1.929,0H8.36a1.93,1.93,0,0,1,1.929,1.93ZM7.949,4.1c-.6.418-1.211.836-1.81,1.257-.252.174-.677.53-.99.53s-.747-.356-1-.53c-.6-.421-1.207-.839-1.806-1.257a1.508,1.508,0,0,1-.666-.975.627.627,0,0,1,.619-.7H7.992a.623.623,0,0,1,.619.619A1.4,1.4,0,0,1,7.949,4.1Zm.662,3.149a.621.621,0,0,1-.619.619H2.3a.621.621,0,0,1-.619-.619V4.177a2.162,2.162,0,0,0,.391.337c.642.437,1.292.874,1.923,1.334a2.117,2.117,0,0,0,1.149.534A2.14,2.14,0,0,0,6.3,5.848c.631-.456,1.281-.9,1.927-1.334a2.28,2.28,0,0,0,.387-.337Z"/>
</svg>
