<svg xmlns="http://www.w3.org/2000/svg" viewBox="0 0 354.17 363.6"><defs><style>.cls-1{fill:#ffc71a;}.cls-2{fill:none;}</style></defs><title>Flower-W</title><g id="Layer_2" data-name="Layer 2"><g id="Layer_1-2" data-name="Layer 1"><path class="cls-1" d="M249.69,183.35l-4.78-1.55,4.78-1.55c10.21-3.32,20.9-22.31,22.94-26.08a4.48,4.48,0,0,0-2-6.16c-3.87-1.86-23.68-10.94-33.89-7.62L232,141.93l3-4.06c6.32-8.68,3.79-30.33,3.22-34.58a4.48,4.48,0,0,0-5.24-3.81c-4.22.77-25.59,5.07-31.89,13.75l-3,4.07v-5c0-10.73-14.76-26.77-17.72-29.88a4.48,4.48,0,0,0-6.48,0c-3,3.11-17.72,19.15-17.72,29.88v5l-3-4.06c-6.3-8.68-27.67-13-31.89-13.75a4.48,4.48,0,0,0-5.24,3.81c-.57,4.25-3.09,25.9,3.22,34.58l3,4.07-4.78-1.55c-10.21-3.32-30,5.77-33.89,7.62a4.48,4.48,0,0,0-2,6.16c2,3.77,12.73,22.76,22.94,26.08l4.78,1.55-4.78,1.55c-10.21,3.32-20.9,22.31-22.94,26.08a4.48,4.48,0,0,0,2,6.16c3.87,1.85,23.68,10.93,33.89,7.62l4.78-1.55-3,4.07c-6.31,8.69-3.79,30.34-3.22,34.59a4.48,4.48,0,0,0,5.24,3.81c4.22-.77,25.59-5.07,31.89-13.76l3-4.07v5c0,10.74,14.76,26.77,17.72,29.88a4.48,4.48,0,0,0,6.48,0c3-3.11,17.72-19.14,17.72-29.88v-5l3,4.06c6.3,8.69,27.67,13,31.89,13.76a4.48,4.48,0,0,0,5.24-3.81c.57-4.25,3.09-25.9-3.22-34.59l-3-4.07,4.78,1.55c10.21,3.32,30-5.77,33.89-7.62a4.48,4.48,0,0,0,2-6.16C270.59,205.66,259.9,186.67,249.69,183.35Zm-10.19-34.46c4.22-1.37,14.68,1.81,22.83,5.21-4.59,7.54-11.18,16.26-15.41,17.63l-17.87,5.81h0l-11.69,3.8a40.06,40.06,0,0,0-3.1-15l8.74-12Zm-62.42,64.24a31.34,31.34,0,1,1,31.34-31.34A31.37,31.37,0,0,1,177.08,213.14Zm31.16-94.65c2.6-3.58,12.93-7.16,21.53-9.2.71,8.8.51,19.73-2.1,23.32l-11.05,15.21h0l-7.22,9.94A40.46,40.46,0,0,0,190,143.64l7.22-9.93h0ZM177.08,92.16c5.75,6.71,12,15.67,12,20.1v17.35l-8.75,12c-1.07-.09-2.16-.14-3.25-.14s-2.18.06-3.25.14l-8.75-12V112.27C165.08,107.83,171.33,98.87,177.08,92.16ZM124.4,109.29c8.6,2,18.92,5.62,21.53,9.2L157,133.7h0l7.22,9.93a40.46,40.46,0,0,0-19.43,14.12l-7.22-9.94h0L126.5,132.6C123.89,129,123.68,118.09,124.4,109.29Zm-17.16,62.45c-4.22-1.37-10.81-10.09-15.41-17.63,8.15-3.4,18.6-6.59,22.83-5.21l16.5,5.36,8.74,12a40.06,40.06,0,0,0-3.1,15l-11.69-3.8h0Zm7.42,43c-4.22,1.37-14.67-1.81-22.83-5.21,4.6-7.54,11.19-16.26,15.41-17.63l16.49-5.36,14.16,4.6a40,40,0,0,0,2,6.2l-8.74,12Zm31.27,30.41c-2.6,3.59-12.93,7.17-21.53,9.21-.72-8.8-.51-19.73,2.1-23.33l11.05-15.21h0l7.22-9.94A40.45,40.45,0,0,0,164.2,220L157,229.9h0Zm31.16,26.33c-5.75-6.7-12-15.66-12-20.11V234l8.75-12c1.08.09,2.16.14,3.26.14s2.18-.06,3.26-.14l8.75,12v17.35C189.09,255.77,182.84,264.74,177.08,271.44Zm52.69-17.12c-8.59-2-18.92-5.62-21.53-9.21L197.19,229.9h0L190,220a40.45,40.45,0,0,0,19.43-14.12l7.22,9.94h0L227.67,231C230.28,234.59,230.48,245.52,229.77,254.32Zm9.74-39.62L223,209.35l-8.74-12a40,40,0,0,0,2-6.2l14.16-4.6,16.49,5.36c4.22,1.37,10.81,10.09,15.41,17.63C254.18,212.9,243.72,216.08,239.51,214.71Z"/><rect class="cls-2" width="354.17" height="363.6"/></g></g></svg>