<svg xmlns="http://www.w3.org/2000/svg" viewBox="0 0 644.4 262.8"><defs><style>.cls-1{fill:#ffc71a;}.cls-2{fill:none;}</style></defs><title>Horizontal-Y</title><g id="Layer_2" data-name="Layer 2"><g id="Layer_1-2" data-name="Layer 1"><path class="cls-1" d="M217.79,118.14a5.39,5.39,0,0,0-3.58,1.25,3.92,3.92,0,0,0-1.49,3.05,3,3,0,0,0,1,2.45,20.61,20.61,0,0,0,5.3,2,27.79,27.79,0,0,1,8.44,3.58,11.5,11.5,0,0,1,4.74,9.89A12.77,12.77,0,0,1,228,150a14.92,14.92,0,0,1-20.37,0,12.74,12.74,0,0,1-4.19-8.73.88.88,0,0,1,.89-.92h7.61a.88.88,0,0,1,.87.73,4,4,0,0,0,1.42,2.37,5.38,5.38,0,0,0,3.58,1.25,5.45,5.45,0,0,0,3.62-1.25,3.92,3.92,0,0,0,1.53-3.09,3,3,0,0,0-1-2.49,20.23,20.23,0,0,0-5.39-2,27.12,27.12,0,0,1-8.4-3.58,11.38,11.38,0,0,1-4.7-9.81,12.85,12.85,0,0,1,4.22-9.64,15,15,0,0,1,20.37,0,12.84,12.84,0,0,1,4.19,8.73.88.88,0,0,1-.89.92h-7.57a.88.88,0,0,1-.86-.72,4,4,0,0,0-1.46-2.34A5.45,5.45,0,0,0,217.79,118.14Z"/><path class="cls-1" d="M277.86,153.54h-7.35a.89.89,0,0,1-.89-.89v-.49a.89.89,0,0,0-1.35-.75,17.39,17.39,0,0,1-9.1,2.53,17.86,17.86,0,0,1-13.82-6.47,23,23,0,0,1-5.71-15.67V110.14a.89.89,0,0,1,.89-.89h7.31a.89.89,0,0,1,.89.89V131.8a14.15,14.15,0,0,0,3.09,9.2,9,9,0,0,0,14.75,0,14.11,14.11,0,0,0,3.05-9.16v-21.7a.89.89,0,0,1,.89-.89h7.35a.89.89,0,0,1,.89.89v42.51A.89.89,0,0,1,277.86,153.54Z"/><path class="cls-1" d="M337.14,108.37A17.81,17.81,0,0,1,351,114.88a22.82,22.82,0,0,1,5.71,15.63v22.14a.89.89,0,0,1-.89.89h-7.35a.89.89,0,0,1-.89-.89V130.52a14.28,14.28,0,0,0-3.05-9.2,9,9,0,0,0-14.75,0,14.27,14.27,0,0,0-3.05,9.2v22.14a.89.89,0,0,1-.89.89h-7.35a.89.89,0,0,1-.89-.89V130.52a14.27,14.27,0,0,0-3.05-9.2,9,9,0,0,0-14.75,0,14.27,14.27,0,0,0-3.05,9.2v22.14a.89.89,0,0,1-.89.89h-7.35a.89.89,0,0,1-.89-.89V110.14a.89.89,0,0,1,.89-.89h7.35a.89.89,0,0,1,.89.89h0a.89.89,0,0,0,1.35.75,17.24,17.24,0,0,1,9.06-2.52,17.66,17.66,0,0,1,14.31,7.08.88.88,0,0,0,1.36,0A17.76,17.76,0,0,1,337.14,108.37Z"/><path class="cls-1" d="M415.07,108.37a17.81,17.81,0,0,1,13.82,6.51,22.82,22.82,0,0,1,5.71,15.63v22.14a.89.89,0,0,1-.89.89h-7.35a.89.89,0,0,1-.89-.89V130.52a14.28,14.28,0,0,0-3.05-9.2,9,9,0,0,0-14.75,0,14.27,14.27,0,0,0-3.05,9.2v22.14a.89.89,0,0,1-.89.89h-7.35a.89.89,0,0,1-.89-.89V130.52a14.27,14.27,0,0,0-3.05-9.2,9,9,0,0,0-14.75,0,14.27,14.27,0,0,0-3.05,9.2v22.14a.89.89,0,0,1-.89.89H366.4a.89.89,0,0,1-.89-.89V110.14a.89.89,0,0,1,.89-.89h7.35a.89.89,0,0,1,.89.89h0a.89.89,0,0,0,1.35.75,17.24,17.24,0,0,1,9.06-2.52,17.66,17.66,0,0,1,14.31,7.08.88.88,0,0,0,1.36,0A17.76,17.76,0,0,1,415.07,108.37Z"/><path class="cls-1" d="M484.4,138.53a.89.89,0,0,1,.61,1.16,22,22,0,0,1-31.8,11.19A22.8,22.8,0,0,1,445,120.06a21.93,21.93,0,0,1,30.36-8.13,21.87,21.87,0,0,1,10.42,13.73l.76,2.83a.89.89,0,0,1-.63,1.09l-31.13,8.34a.9.9,0,0,0-.5,1.37,12.26,12.26,0,0,0,5.66,4.53,12.39,12.39,0,0,0,7.8.4,11.8,11.8,0,0,0,8.35-7.1.9.9,0,0,1,1.06-.54Zm-11-14.41a.89.89,0,0,0,.45-1.44,13,13,0,0,0-5.25-3.68,12.67,12.67,0,0,0-14.36,3.85,13,13,0,0,0-2.71,5.81.89.89,0,0,0,1.11,1Z"/><path class="cls-1" d="M503,111.3a.88.88,0,0,0,1.35.75,18.67,18.67,0,0,1,9.94-2.79H518a.89.89,0,0,1,.89.89v7.35a.89.89,0,0,1-.89.89h-3.69a10.27,10.27,0,0,0-8,3.82,13.55,13.55,0,0,0-3.29,9.16v21.3a.89.89,0,0,1-.89.89H494.8a.89.89,0,0,1-.89-.89V110.14a.89.89,0,0,1,.89-.89h7.35a.89.89,0,0,1,.89.89Z"/><path class="cls-1" d="M531.61,129.71a11.25,11.25,0,0,0,3.3,8.16,11,11,0,0,0,15.91,0,11.39,11.39,0,0,0,3.3-8.2q0-.52,0-1V110.14a.89.89,0,0,1,.89-.89h7.55a.89.89,0,0,1,.89.89v36.29a22.68,22.68,0,0,1-6.15,15.83,18.74,18.74,0,0,1-14.07,6.35,20.62,20.62,0,0,1-11.89-4,22,22,0,0,1-7.45-8.79.89.89,0,0,1,.49-1.19l7.09-2.71a.9.9,0,0,1,1.11.44A13.16,13.16,0,0,0,536.6,157a11.62,11.62,0,0,0,6.59,2.33,9.74,9.74,0,0,0,7.56-3.7,13.41,13.41,0,0,0,3.07-6.56.89.89,0,0,0-1.32-.91,20.31,20.31,0,0,1-24.18-3.66,20.23,20.23,0,0,1-6-14.75V110.14a.89.89,0,0,1,.89-.89h7.55a.89.89,0,0,1,.89.89Z"/><path class="cls-1" d="M165.35,132.18,163,131.4l2.39-.78c5.1-1.66,10.45-11.15,11.47-13a2.24,2.24,0,0,0-1-3.08c-1.93-.93-11.84-5.47-16.94-3.81l-2.39.78,1.48-2c3.16-4.34,1.9-15.17,1.61-17.29a2.24,2.24,0,0,0-2.62-1.9c-2.11.39-12.79,2.54-15.95,6.87l-1.48,2V96.63c0-5.36-7.38-13.38-8.86-14.94a2.24,2.24,0,0,0-3.24,0c-1.48,1.55-8.86,9.57-8.86,14.94v2.51l-1.48-2c-3.15-4.34-13.84-6.49-15.95-6.87a2.24,2.24,0,0,0-2.62,1.9c-.28,2.13-1.55,13,1.61,17.29l1.48,2-2.39-.78c-5.11-1.66-15,2.88-16.95,3.81a2.24,2.24,0,0,0-1,3.08c1,1.89,6.36,11.38,11.47,13l2.39.78-2.39.78c-5.1,1.66-10.45,11.15-11.47,13a2.24,2.24,0,0,0,1,3.08c1.93.93,11.84,5.47,16.94,3.81l2.39-.78-1.48,2c-3.16,4.34-1.9,15.17-1.61,17.3a2.24,2.24,0,0,0,2.62,1.9c2.11-.39,12.8-2.54,15.95-6.88l1.48-2v2.51c0,5.37,7.38,13.39,8.86,14.94a2.24,2.24,0,0,0,3.24,0c1.48-1.55,8.86-9.57,8.86-14.94v-2.51l1.48,2c3.15,4.35,13.84,6.49,15.95,6.88a2.24,2.24,0,0,0,2.62-1.9c.28-2.13,1.55-13-1.61-17.3l-1.48-2,2.39.78c5.11,1.66,15-2.88,16.95-3.81a2.24,2.24,0,0,0,1-3.08C175.8,143.33,170.45,133.84,165.35,132.18Zm-5.09-17.23c2.11-.69,7.34.9,11.41,2.6-2.3,3.77-5.59,8.13-7.71,8.82l-8.93,2.9h0l-5.84,1.9a20,20,0,0,0-1.55-7.52l4.37-6ZM129,147.07a15.67,15.67,0,1,1,15.67-15.67A15.69,15.69,0,0,1,129,147.07Zm15.58-47.32c1.3-1.79,6.47-3.58,10.76-4.6.36,4.4.25,9.87-1.05,11.66l-5.53,7.61h0l-3.61,5a20.23,20.23,0,0,0-9.71-7.06l3.61-5h0ZM129,86.58c2.88,3.35,6,7.84,6,10.05v8.67l-4.38,6c-.54,0-1.08-.07-1.63-.07s-1.09,0-1.63.07l-4.38-6V96.63C123,94.42,126.17,89.93,129,86.58ZM102.7,95.14c4.3,1,9.46,2.81,10.76,4.6l5.53,7.61h0l3.61,5a20.23,20.23,0,0,0-9.71,7.06l-3.61-5h0l-5.53-7.61C102.45,105,102.34,99.55,102.7,95.14Zm-8.58,31.22c-2.11-.69-5.41-5-7.71-8.82,4.07-1.7,9.3-3.29,11.42-2.6l8.25,2.68,4.37,6a20,20,0,0,0-1.55,7.52l-5.84-1.9h0Zm3.71,21.49c-2.11.69-7.34-.9-11.41-2.6,2.3-3.77,5.6-8.13,7.7-8.82l8.25-2.68,7.08,2.3a20,20,0,0,0,1,3.1l-4.37,6Zm15.63,15.2c-1.3,1.79-6.47,3.58-10.76,4.6-.36-4.4-.26-9.86,1.05-11.66l5.53-7.61h0l3.61-5a20.23,20.23,0,0,0,9.71,7.06l-3.61,5h0ZM129,176.22c-2.88-3.35-6-7.83-6-10.05v-8.67l4.38-6c.54,0,1.08.07,1.63.07s1.09,0,1.63-.07l4.38,6v8.67C135,168.39,131.92,172.87,129,176.22Zm26.34-8.56c-4.3-1-9.46-2.81-10.76-4.61l-5.53-7.61h0l-3.61-5a20.23,20.23,0,0,0,9.71-7.06l3.61,5h0l5.53,7.61C155.64,157.79,155.74,163.26,155.38,167.66Zm4.87-19.81L152,145.17l-4.37-6a20,20,0,0,0,1-3.1l7.08-2.3,8.25,2.68c2.11.69,5.41,5,7.71,8.82C167.59,146.95,162.36,148.54,160.25,147.85Z"/><rect class="cls-2" width="644.4" height="262.8"/></g></g></svg>