<?xml version="1.0" encoding="utf-8"?>
<!-- Generator: Adobe Illustrator 24.0.2, SVG Export Plug-In . SVG Version: 6.00 Build 0)  -->
<svg version="1.1" id="Layer_1" xmlns="http://www.w3.org/2000/svg" xmlns:xlink="http://www.w3.org/1999/xlink" x="0px" y="0px"
	 viewBox="0 0 431 65" style="enable-background:new 0 0 431 65;" xml:space="preserve">
<style type="text/css">
	.st0{fill:#FFC71A;}
</style>
<g>
	<path class="st0" d="M46.2,6L20.9,32.7l24.7,26.1H34.3l-18.9-20v19.9H7.3V6h8.2v20.6L34.9,6H46.2z"/>
	<path class="st0" d="M57.5,7c0.9,0.9,1.3,1.9,1.3,3.2s-0.4,2.3-1.3,3.2c-0.9,0.9-1.9,1.3-3.2,1.3s-2.3-0.4-3.2-1.3
		c-0.9-0.9-1.3-1.9-1.3-3.2s0.4-2.3,1.3-3.2C52,6.1,53,5.7,54.3,5.7C55.6,5.6,56.7,6.1,57.5,7z M50.2,58.8h8.2V18.9h-8.2V58.8z"/>
	<path class="st0" d="M85.1,18.1c5.1,0,9.4,2,13,5.9s5.4,8.6,5.4,14.1v20.7h-8.2V38c0-3.2-1-6-3-8.3s-4.4-3.4-7.2-3.4
		c-2.8,0-5.2,1.1-7.2,3.4s-3,5-3,8.3v20.7h-8.2V18.9H75v2.5C78,19.2,81.4,18.1,85.1,18.1z"/>
	<path class="st0" d="M150.1,58.8h-8.4v-3.4c-3.5,2.6-7.3,3.9-11.6,3.9c-5.5,0-10.2-2-14.1-6s-5.9-8.7-5.9-14.3s2-10.4,5.9-14.3
		c3.9-4,8.6-6,14.1-6c4.3,0,8.1,1.3,11.6,3.8V6h8.4V58.8z M130.1,50.9c3.2,0,5.9-1.2,8.2-3.5s3.4-5.1,3.4-8.4c0-3.3-1.1-6.1-3.4-8.5
		c-2.3-2.3-5-3.5-8.2-3.5s-6,1.2-8.2,3.5s-3.4,5.2-3.4,8.5s1.1,6.1,3.4,8.4C124.2,49.7,126.9,50.9,130.1,50.9z"/>
	<path class="st0" d="M203.1,13.6c-5.1,0-9.4,1.8-12.9,5.5c-3.6,3.7-5.4,8.1-5.4,13.3s1.8,9.6,5.4,13.3c3.6,3.7,7.9,5.5,12.9,5.5
		c6.5,0,11.6-2.8,15.3-8.3l7.1,4.7c-2.5,3.8-5.7,6.7-9.7,8.9c-4,2.1-8.2,3.2-12.7,3.2c-7.4,0-13.7-2.7-19-8
		c-5.3-5.4-7.9-11.8-7.9-19.4c0-7.5,2.6-14,7.9-19.3c5.3-5.3,11.6-8,19-8c4.5,0,8.8,1.1,12.7,3.2c4,2.2,7.2,5.1,9.7,8.9l-7.1,4.7
		C214.7,16.3,209.6,13.6,203.1,13.6z"/>
	<path class="st0" d="M251.2,18.5c5.5,0,10.2,2,14.1,6s5.9,8.7,5.9,14.3s-2,10.4-5.9,14.3c-3.9,4-8.6,6-14.1,6s-10.2-2-14.1-6
		c-3.9-4-5.9-8.7-5.9-14.3s2-10.4,5.9-14.3C241,20.5,245.7,18.5,251.2,18.5z M251.2,50.8c3.2,0,5.9-1.2,8.2-3.5s3.4-5.2,3.4-8.5
		s-1.1-6.1-3.4-8.5c-2.3-2.3-5-3.5-8.2-3.5s-6,1.2-8.2,3.5s-3.4,5.2-3.4,8.5s1.1,6.1,3.4,8.5C245.3,49.6,248,50.8,251.2,50.8z"/>
	<path class="st0" d="M286.1,50.6h22.7v8.2h-30.9V6h8.2L286.1,50.6L286.1,50.6z"/>
	<path class="st0" d="M352.1,58.8h-8.4v-3.4c-3.5,2.6-7.3,3.8-11.6,3.8c-5.5,0-10.2-2-14.1-6s-5.9-8.7-5.9-14.3s2-10.4,5.9-14.3
		c3.9-4,8.6-6,14.1-6c4.3,0,8.1,1.3,11.6,3.8V19h8.4V58.8z M332.1,50.8c3.2,0,5.9-1.2,8.2-3.5c2.3-2.3,3.4-5.2,3.4-8.5
		s-1.1-6.1-3.4-8.5c-2.3-2.3-5-3.5-8.2-3.5s-6,1.2-8.2,3.5s-3.4,5.2-3.4,8.5s1.1,6.1,3.4,8.5C326.2,49.6,328.9,50.8,332.1,50.8z"/>
	<path class="st0" d="M379.7,18.7c5.5,0,10.2,2,14.1,6s5.9,8.7,5.9,14.3s-2,10.4-5.9,14.3c-3.9,4-8.6,6-14.1,6
		c-4.3,0-8.2-1.3-11.6-3.9v3.4h-8.4V6h8.4v16.5C371.5,19.9,375.4,18.7,379.7,18.7z M379.7,50.9c3.2,0,5.9-1.2,8.2-3.5
		c2.3-2.3,3.4-5.1,3.4-8.4c0-3.3-1.1-6.1-3.4-8.5c-2.3-2.3-5-3.5-8.2-3.5s-6,1.2-8.2,3.5c-2.3,2.3-3.4,5.2-3.4,8.5s1.1,6.1,3.4,8.4
		C373.7,49.7,376.5,50.9,379.7,50.9z"/>
	<path class="st0" d="M409.1,11.3V13h-2.3v9.1h-1.7V13h-2.3v-1.7H409.1z"/>
	<path class="st0" d="M411.7,11.3l3.1,7.7l3.1-7.7h1.4v10.8h-1.7v-5.7l-2.3,5.7h-1.1l-2.3-5.7v5.7h-1.7V11.3H411.7z"/>
</g>
</svg>
