<?xml version="1.0" encoding="utf-8"?>
<!-- Generator: Adobe Illustrator 24.1.3, SVG Export Plug-In . SVG Version: 6.00 Build 0)  -->
<svg version="1.1" id="Layer_1" xmlns="http://www.w3.org/2000/svg" xmlns:xlink="http://www.w3.org/1999/xlink" x="0px" y="0px"
	 viewBox="0 0 685 78" style="enable-background:new 0 0 685 78;" xml:space="preserve">
<style type="text/css">
	.st0{fill:#FFC71A;}
</style>
<g>
	<path class="st0" d="M37.2,69l-21-36.2V69H7.3V11.9h7L35.2,48V11.9h8.9V69H37.2z"/>
	<path class="st0" d="M90.9,59.7c-1.8,2.8-4.1,5-7,6.7c-3.4,2-7,3.1-10.9,3.1c-6,0-11.1-2.2-15.3-6.5c-4.2-4.3-6.3-9.5-6.3-15.5
		c0-6.1,2.1-11.3,6.3-15.5c4.2-4.3,9.3-6.5,15.3-6.5c5.9,0,11,2.2,15.3,6.5c4.2,4.3,6.3,9.5,6.3,15.5v3.7H61.2
		c0.7,2.8,2.2,5.1,4.5,6.8c2.2,1.6,4.6,2.3,7.2,2.3c4.4,0,7.7-1.7,10.1-5.2L90.9,59.7z M84.8,42.9c-0.9-2.5-2.4-4.5-4.5-6
		c-2.2-1.6-4.6-2.3-7.2-2.3s-5.1,0.8-7.2,2.3c-2.1,1.5-3.6,3.5-4.5,6H84.8z"/>
	<path class="st0" d="M113.8,25.9h5.8v8.9h-5.8V69h-8.9V34.8h-5.8v-8.9h5.8v-14h8.9V25.9z"/>
	<path class="st0" d="M181.1,20.1c-5.5,0-10.1,2-14,6c-3.9,4-5.9,8.8-5.9,14.4c0,5.6,2,10.4,5.9,14.4c3.9,4,8.5,6,14,6
		c7.1,0,12.6-3,16.5-9l7.7,5.1c-2.7,4.1-6.2,7.3-10.5,9.6c-4.3,2.3-8.9,3.5-13.7,3.5c-8,0-14.9-2.9-20.6-8.7
		c-5.7-5.8-8.5-12.8-8.5-21s2.8-15.1,8.5-20.9c5.7-5.8,12.6-8.7,20.6-8.7c4.9,0,9.5,1.1,13.7,3.4c4.3,2.3,7.8,5.6,10.5,9.7l-7.7,5.1
		C193.7,23.1,188.1,20.1,181.1,20.1z"/>
	<path class="st0" d="M250.9,69h-8.9v-2.9c-3.1,2.2-6.5,3.3-10.2,3.3c-5.2,0-9.7-2.1-13.5-6.3c-3.7-4.2-5.6-9.3-5.6-15.3V25.9h8.8
		v21.9c0,3.5,1,6.5,3,9c2,2.5,4.4,3.7,7.2,3.7c2.8,0,5.2-1.2,7.2-3.7c2-2.5,3-5.4,3-8.9v-22h8.9V69z"/>
	<path class="st0" d="M260.7,11.9h8.8V69h-8.8V11.9z"/>
	<path class="st0" d="M291.3,25.9h5.8v8.9h-5.8V69h-8.9V34.8h-5.8v-8.9h5.8v-14h8.9V25.9z"/>
	<path class="st0" d="M341,69h-8.9v-2.9c-3.1,2.2-6.5,3.3-10.2,3.3c-5.2,0-9.7-2.1-13.5-6.3c-3.7-4.2-5.6-9.3-5.6-15.3V25.9h8.8
		v21.9c0,3.5,1,6.5,3,9c2,2.5,4.4,3.7,7.2,3.7c2.8,0,5.2-1.2,7.2-3.7c2-2.5,3-5.4,3-8.9v-22h8.9V69z"/>
	<path class="st0" d="M358.5,29.5c3.3-2.4,7-3.6,11-3.6h4.5v8.9h-4.5c-3,0-5.6,1.2-7.8,3.7c-2.1,2.5-3.2,5.5-3.2,8.9V69h-8.9V25.9
		h8.9V29.5z"/>
	<path class="st0" d="M416.9,59.7c-1.8,2.8-4.1,5-7,6.7c-3.4,2-7,3.1-10.9,3.1c-6,0-11.1-2.2-15.3-6.5c-4.2-4.3-6.3-9.5-6.3-15.5
		c0-6.1,2.1-11.3,6.3-15.5c4.2-4.3,9.3-6.5,15.3-6.5c5.9,0,11,2.2,15.3,6.5c4.2,4.3,6.3,9.5,6.3,15.5v3.7h-33.4
		c0.7,2.8,2.2,5.1,4.5,6.8c2.2,1.6,4.6,2.3,7.2,2.3c4.4,0,7.7-1.7,10.1-5.2L416.9,59.7z M410.7,42.9c-0.9-2.5-2.4-4.5-4.5-6
		c-2.2-1.6-4.6-2.3-7.2-2.3s-5.1,0.8-7.2,2.3c-2.1,1.5-3.6,3.5-4.5,6H410.7z"/>
	<path class="st0" d="M472.2,20.3c-2.5,0-4.6,0.8-6.3,2.3c-1.7,1.5-2.6,3.4-2.6,5.5c0,2.2,0.7,3.8,2,4.8c1.3,0.9,3.9,2,8,3.1
		c5.1,1.4,8.7,2.9,11,4.5c4,2.9,5.9,7,5.9,12.3c0,4.7-1.8,8.7-5.3,12c-3.5,3.3-7.8,5-12.8,5c-5,0-9.2-1.7-12.8-5
		c-3.5-3.3-5.3-7.3-5.3-12h9.2c0,2.2,0.9,4,2.6,5.5c1.7,1.5,3.8,2.3,6.3,2.3c2.5,0,4.5-0.8,6.3-2.3c1.7-1.5,2.6-3.4,2.6-5.5
		c0-2.3-0.8-4-2.3-5.1c-1.2-0.9-3.9-1.9-7.9-3c-5-1.4-8.6-2.9-10.9-4.5c-3.9-2.8-5.9-6.9-5.9-12.2c0-4.7,1.8-8.7,5.3-12
		c3.5-3.3,7.8-5,12.8-5c5,0,9.2,1.7,12.8,5c3.5,3.3,5.3,7.3,5.3,12H481c0-2.2-0.9-4-2.6-5.5C476.7,21.1,474.6,20.3,472.2,20.3z"/>
	<path class="st0" d="M517.9,34.5c-3.5,0-6.4,1.3-8.9,3.8c-2.5,2.5-3.7,5.6-3.7,9.2s1.2,6.6,3.7,9.2c2.5,2.5,5.4,3.8,8.9,3.8
		c4.3,0,7.6-1.8,10.2-5.3l7.4,5.2c-4.4,6.1-10.2,9.1-17.6,9.1c-6,0-11.1-2.2-15.3-6.5c-4.2-4.3-6.3-9.5-6.3-15.5
		c0-6.1,2.1-11.3,6.3-15.5c4.2-4.3,9.3-6.5,15.3-6.5c7.4,0,13.2,3,17.6,9.1l-7.4,5.2C525.5,36.3,522.1,34.5,517.9,34.5z"/>
	<path class="st0" d="M562,25.5c5.9,0,11,2.2,15.3,6.5c4.2,4.3,6.3,9.5,6.3,15.5c0,6.1-2.1,11.3-6.3,15.5c-4.3,4.3-9.3,6.5-15.3,6.5
		c-6,0-11.1-2.2-15.3-6.5c-4.2-4.3-6.3-9.5-6.3-15.5c0-6.1,2.1-11.3,6.3-15.5C550.9,27.6,556,25.5,562,25.5z M562,60.4
		c3.4,0,6.4-1.3,8.9-3.8c2.5-2.5,3.7-5.6,3.7-9.2s-1.2-6.6-3.7-9.2c-2.5-2.5-5.4-3.8-8.9-3.8c-3.5,0-6.4,1.3-8.9,3.8
		c-2.4,2.5-3.6,5.6-3.6,9.2s1.2,6.6,3.6,9.2C555.5,59.1,558.5,60.4,562,60.4z"/>
	<path class="st0" d="M599.7,29.5c3.3-2.4,7-3.6,11-3.6h4.5v8.9h-4.5c-3,0-5.6,1.2-7.8,3.7c-2.1,2.5-3.2,5.5-3.2,8.9V69h-8.9V25.9
		h8.9V29.5z"/>
	<path class="st0" d="M658.1,59.7c-1.8,2.8-4.1,5-7,6.7c-3.4,2-7,3.1-10.9,3.1c-6,0-11.1-2.2-15.3-6.5c-4.2-4.3-6.3-9.5-6.3-15.5
		c0-6.1,2.1-11.3,6.3-15.5c4.2-4.3,9.3-6.5,15.3-6.5c5.9,0,11,2.2,15.3,6.5c4.2,4.3,6.3,9.5,6.3,15.5v3.7h-33.4
		c0.7,2.8,2.2,5.1,4.5,6.8c2.2,1.6,4.6,2.3,7.2,2.3c4.4,0,7.7-1.7,10.1-5.2L658.1,59.7z M651.9,42.9c-0.9-2.5-2.4-4.5-4.5-6
		c-2.2-1.6-4.6-2.3-7.2-2.3s-5.1,0.8-7.2,2.3c-2.1,1.5-3.6,3.5-4.5,6H651.9z"/>
</g>
<g>
	<path class="st0" d="M677.1,27.5c1.4,1.4,2.1,3,2.1,5s-0.7,3.6-2.1,5s-3,2.1-5,2.1s-3.6-0.7-5-2.1s-2.1-3-2.1-5s0.7-3.6,2.1-5
		s3-2.1,5-2.1S675.7,26.1,677.1,27.5z M672.2,27c-1.5,0-2.8,0.5-3.9,1.6c-1.1,1.1-1.6,2.4-1.6,3.9c0,1.5,0.5,2.8,1.6,3.9
		c1.1,1.1,2.4,1.6,3.9,1.6c1.5,0,2.8-0.5,3.9-1.6s1.6-2.4,1.6-3.9c0-1.5-0.5-2.8-1.6-3.9S673.7,27,672.2,27z M671.3,33.4v3.3h-1.7
		v-8.6h2.9c0.8,0,1.4,0.3,1.8,0.8c0.4,0.5,0.6,1,0.6,1.7c0,0.8-0.2,1.4-0.6,1.9c-0.4,0.4-0.8,0.6-1.3,0.6l2.2,3.7h-1.9L671.3,33.4z
		 M671.7,31.6c0.8,0,1.3-0.1,1.4-0.3c0.1-0.1,0.2-0.3,0.1-0.6c0-0.2-0.1-0.4-0.2-0.6c-0.1-0.2-0.3-0.2-0.5-0.2h-1.2v1.8H671.7z"/>
</g>
</svg>
