<?xml version="1.0" encoding="utf-8"?>
<!-- Generator: Adobe Illustrator 24.0.1, SVG Export Plug-In . SVG Version: 6.00 Build 0)  -->
<svg version="1.1" id="Layer_1" xmlns="http://www.w3.org/2000/svg" xmlns:xlink="http://www.w3.org/1999/xlink" x="0px" y="0px"
	 viewBox="0 0 552.1 65" style="enable-background:new 0 0 552.1 65;" xml:space="preserve">
<style type="text/css">
	.st0{enable-background:new    ;}
	.st1{fill:#FFFFFF;}
</style>
<g class="st0">
	<path class="st1" d="M15.7,21.9c3.1,0,5.8,1.1,8,3.4c2.2,2.2,3.3,5,3.3,8.1c0,3.2-1.1,5.9-3.3,8.2c-2.2,2.3-4.9,3.4-8,3.4
		c-2.4,0-4.6-0.7-6.6-2.2v9.6H4.4V22.2h4.7v1.8C11.1,22.7,13.3,21.9,15.7,21.9z M15.7,40.3c1.8,0,3.4-0.7,4.6-2c1.3-1.3,2-2.9,2-4.8
		c0-1.9-0.7-3.5-2-4.8c-1.3-1.3-2.8-2-4.6-2c-1.8,0-3.4,0.7-4.7,2c-1.3,1.3-1.9,2.9-1.9,4.8c0,1.9,0.6,3.5,1.9,4.8
		C12.4,39.6,13.9,40.3,15.7,40.3z"/>
	<path class="st1" d="M41.5,22c3.1,0,5.8,1.1,8,3.4c2.2,2.2,3.3,5,3.3,8.2c0,3.2-1.1,5.9-3.3,8.2c-2.2,2.3-4.9,3.4-8,3.4
		c-3.1,0-5.8-1.1-8-3.4c-2.2-2.2-3.3-5-3.3-8.2c0-3.2,1.1-5.9,3.3-8.2C35.7,23.1,38.4,22,41.5,22z M41.5,40.3c1.8,0,3.4-0.7,4.7-2
		c1.3-1.3,1.9-2.9,1.9-4.8c0-1.9-0.6-3.5-1.9-4.8c-1.3-1.3-2.9-2-4.7-2c-1.8,0-3.4,0.7-4.7,2c-1.3,1.3-1.9,2.9-1.9,4.8
		c0,1.9,0.6,3.5,1.9,4.8C38.2,39.7,39.7,40.3,41.5,40.3z"/>
	<path class="st1" d="M73,44.9l-4.2-12.9l-4.2,12.9h-3.2l-7.3-22.6H59l4.1,12.5l4-12.5h3.5l4,12.5l4-12.5h4.9l-7.3,22.6H73z"/>
	<path class="st1" d="M105.6,40c-0.9,1.5-2.2,2.6-3.7,3.5c-1.8,1.1-3.7,1.6-5.7,1.6c-3.1,0-5.8-1.1-8-3.4c-2.2-2.2-3.3-5-3.3-8.2
		c0-3.2,1.1-5.9,3.3-8.2c2.2-2.3,4.9-3.4,8-3.4c3.1,0,5.8,1.1,8,3.4c2.2,2.2,3.3,5,3.3,8.2v2H90c0.4,1.5,1.2,2.7,2.4,3.6
		c1.1,0.8,2.4,1.2,3.8,1.2c2.3,0,4.1-0.9,5.3-2.7L105.6,40z M102.3,31.2c-0.5-1.3-1.3-2.4-2.4-3.2c-1.1-0.8-2.4-1.2-3.8-1.2
		c-1.4,0-2.7,0.4-3.8,1.2c-1.1,0.8-1.9,1.9-2.4,3.2H102.3z"/>
	<path class="st1" d="M116,24.1c1.7-1.3,3.7-1.9,5.8-1.9h2.3v4.7h-2.3c-1.6,0-3,0.7-4.1,2c-1.1,1.3-1.7,2.9-1.7,4.7v11.3h-4.7V22.2
		h4.7V24.1z"/>
	<path class="st1" d="M146.6,40c-0.9,1.5-2.2,2.6-3.7,3.5c-1.8,1.1-3.7,1.6-5.7,1.6c-3.1,0-5.8-1.1-8-3.4c-2.2-2.2-3.3-5-3.3-8.2
		c0-3.2,1.1-5.9,3.3-8.2c2.2-2.3,4.9-3.4,8-3.4c3.1,0,5.8,1.1,8,3.4c2.2,2.2,3.3,5,3.3,8.2v2H131c0.4,1.5,1.2,2.7,2.4,3.6
		c1.1,0.8,2.4,1.2,3.8,1.2c2.3,0,4.1-0.9,5.3-2.7L146.6,40z M143.4,31.2c-0.5-1.3-1.3-2.4-2.4-3.2c-1.1-0.8-2.4-1.2-3.8-1.2
		c-1.4,0-2.7,0.4-3.8,1.2c-1.1,0.8-1.9,1.9-2.4,3.2H143.4z"/>
	<path class="st1" d="M174.3,44.9h-4.8V43c-2,1.5-4.2,2.2-6.6,2.2c-3.1,0-5.8-1.1-8-3.4c-2.2-2.2-3.3-5-3.3-8.1
		c0-3.2,1.1-5.9,3.3-8.2c2.2-2.3,4.9-3.4,8-3.4c2.4,0,4.6,0.7,6.6,2.2v-9.4h4.8V44.9z M162.9,40.4c1.8,0,3.4-0.7,4.7-2
		c1.3-1.3,1.9-2.9,1.9-4.8c0-1.9-0.6-3.5-1.9-4.8c-1.3-1.3-2.9-2-4.7-2c-1.8,0-3.4,0.7-4.7,2c-1.3,1.3-1.9,2.9-1.9,4.8
		c0,1.9,0.6,3.5,1.9,4.8C159.6,39.8,161.1,40.4,162.9,40.4z"/>
	<path class="st1" d="M204.4,22.1c3.1,0,5.8,1.1,8,3.4c2.2,2.2,3.3,5,3.3,8.2c0,3.2-1.1,5.9-3.3,8.1c-2.2,2.3-4.9,3.4-8,3.4
		c-2.4,0-4.6-0.7-6.6-2.2v1.9h-4.8v-30h4.8v9.4C199.8,22.8,202,22.1,204.4,22.1z M204.4,40.4c1.8,0,3.4-0.7,4.6-2
		c1.3-1.3,2-2.9,2-4.8c0-1.9-0.7-3.5-2-4.8c-1.3-1.3-2.8-2-4.6-2c-1.8,0-3.4,0.7-4.7,2c-1.3,1.3-1.9,2.9-1.9,4.8
		c0,1.9,0.6,3.5,1.9,4.8C201,39.8,202.6,40.4,204.4,40.4z"/>
	<path class="st1" d="M223.6,32.7c0,1.6,0.6,3,1.7,4.2c1.1,1.2,2.5,1.7,4.1,1.7c1.6,0,2.9-0.6,4.1-1.7c1.1-1.2,1.7-2.6,1.7-4.2
		c0-0.2,0-0.4,0-0.5v-9.9h4.8v19c-0.1,3.2-1.1,5.9-3.1,8.1c-2,2.2-4.4,3.2-7.2,3.2c-2.1,0-4.1-0.7-6.1-2.1c-1.8-1.3-3.2-2.9-4-4.9
		l4.5-1.7c0.5,1.1,1.3,2,2.3,2.7c1.2,0.8,2.3,1.2,3.4,1.2c1.5,0,2.8-0.6,3.9-1.9c1-1.1,1.6-2.6,1.7-4.3c-1.7,1.1-3.6,1.7-5.7,1.7
		c-2.9,0-5.4-1-7.4-3.1c-2.1-2.1-3.1-4.6-3.1-7.5V22.2h4.8V32.7z"/>
</g>
<g id="Layer_2_1_">
	<g id="Layer_1-2">
		<path class="st1" d="M339.3,24.8c-0.8,0-1.5,0.2-2.1,0.7c-0.5,0.4-0.9,1.1-0.9,1.8c0,0.5,0.2,1.1,0.6,1.4c1,0.5,2,0.9,3.1,1.2
			c1.7,0.4,3.4,1.1,4.9,2.1c1.8,1.3,2.9,3.5,2.8,5.8c0,2.1-0.9,4.2-2.4,5.6c-3.3,3.1-8.5,3.1-11.9,0c-1.5-1.3-2.3-3.1-2.4-5.1
			c0-0.3,0.2-0.5,0.5-0.5l0,0h4.4c0.3,0,0.5,0.2,0.5,0.4c0.1,0.5,0.4,1,0.8,1.4c0.6,0.5,1.3,0.7,2.1,0.7c0.8,0,1.5-0.2,2.1-0.7
			c0.6-0.4,0.9-1.1,0.9-1.8c0-0.5-0.2-1.1-0.6-1.5c-1-0.5-2-0.9-3.1-1.2c-1.7-0.4-3.4-1.1-4.9-2.1c-1.8-1.3-2.9-3.5-2.7-5.7
			c0-2.1,0.9-4.2,2.5-5.6c3.4-3.1,8.5-3.1,11.9,0c1.4,1.3,2.3,3.1,2.4,5.1c0,0.3-0.2,0.5-0.5,0.5l0,0h-4.4c-0.2,0-0.5-0.2-0.5-0.4
			c-0.1-0.5-0.4-1-0.9-1.4C340.9,25,340.1,24.7,339.3,24.8z"/>
		<path class="st1" d="M374.3,45.4H370c-0.3,0-0.5-0.2-0.5-0.5l0,0v-0.3c0-0.3-0.2-0.5-0.5-0.5c-0.1,0-0.2,0-0.3,0.1
			c-1.6,1-3.4,1.5-5.3,1.5c-3.1,0-6.1-1.4-8.1-3.8c-2.2-2.5-3.4-5.8-3.3-9.1V20.1c0-0.3,0.2-0.5,0.5-0.5h4.3c0.3,0,0.5,0.2,0.5,0.5
			v12.6c-0.1,1.9,0.6,3.8,1.8,5.4c1.7,2.4,4.9,3,7.3,1.3c0.5-0.4,0.9-0.8,1.3-1.3c1.2-1.5,1.8-3.4,1.8-5.3V20.1
			c0-0.3,0.2-0.5,0.5-0.5l0,0h4.3c0.3,0,0.5,0.2,0.5,0.5l0,0v24.8C374.9,45.2,374.6,45.4,374.3,45.4z"/>
		<path class="st1" d="M408.9,19.1c3.1,0,6.1,1.4,8.1,3.8c2.2,2.5,3.4,5.8,3.3,9.1v12.9c0,0.3-0.2,0.5-0.5,0.5l0,0h-4.3
			c-0.3,0-0.5-0.2-0.5-0.5l0,0V32c0.1-1.9-0.6-3.8-1.8-5.4c-1.7-2.4-4.9-3-7.3-1.3c-0.5,0.4-0.9,0.8-1.3,1.3
			c-1.2,1.5-1.8,3.4-1.8,5.4v12.9c0,0.3-0.2,0.5-0.5,0.5l0,0H398c-0.3,0-0.5-0.2-0.5-0.5l0,0V32c0.1-1.9-0.6-3.8-1.8-5.4
			c-1.7-2.4-4.9-3-7.3-1.3c-0.5,0.4-0.9,0.8-1.3,1.3c-1.2,1.5-1.8,3.4-1.8,5.4v12.9c0,0.3-0.2,0.5-0.5,0.5l0,0h-4.3
			c-0.3,0-0.5-0.2-0.5-0.5l0,0V20.1c0-0.3,0.2-0.5,0.5-0.5l0,0h4.3c0.3,0,0.5,0.2,0.5,0.5l0,0l0,0c0,0.3,0.2,0.5,0.5,0.5
			c0.1,0,0.2,0,0.3-0.1c1.6-1,3.4-1.5,5.3-1.5c3.3,0,6.4,1.5,8.3,4.1c0.2,0.2,0.5,0.3,0.7,0.1c0,0,0,0,0.1-0.1
			C402.5,20.6,405.6,19,408.9,19.1z"/>
		<path class="st1" d="M454.3,19.1c3.1,0,6.1,1.4,8.1,3.8c2.2,2.5,3.4,5.8,3.3,9.1v12.9c0,0.3-0.2,0.5-0.5,0.5l0,0h-4.3
			c-0.3,0-0.5-0.2-0.5-0.5l0,0V32c0.1-1.9-0.6-3.8-1.8-5.4c-1.7-2.4-4.9-3-7.3-1.3c-0.5,0.4-0.9,0.8-1.3,1.3
			c-1.2,1.5-1.8,3.4-1.8,5.4v12.9c0,0.3-0.2,0.5-0.5,0.5l0,0h-4.3c-0.3,0-0.5-0.2-0.5-0.5l0,0V32c0.1-1.9-0.6-3.8-1.8-5.4
			c-1.7-2.4-4.9-3-7.3-1.3c-0.5,0.4-0.9,0.8-1.3,1.3c-1.2,1.5-1.8,3.4-1.8,5.4v12.9c0,0.3-0.2,0.5-0.5,0.5l0,0H426
			c-0.3,0-0.5-0.2-0.5-0.5l0,0V20.1c0-0.3,0.2-0.5,0.5-0.5l0,0h4.3c0.3,0,0.5,0.2,0.5,0.5l0,0l0,0c0,0.3,0.2,0.5,0.5,0.5
			c0.1,0,0.2,0,0.3-0.1c1.6-1,3.4-1.5,5.3-1.5c3.3,0,6.4,1.5,8.3,4.1c0.2,0.2,0.5,0.3,0.7,0.1c0,0,0,0,0.1-0.1
			C448,20.6,451.1,19,454.3,19.1z"/>
		<path class="st1" d="M494.8,36.6c0.3,0.1,0.4,0.4,0.4,0.6l0,0c-2.5,6.6-9.9,10-16.5,7.5c-0.7-0.3-1.4-0.6-2-1
			c-6.2-3.7-8.3-11.7-4.8-18c3.4-6.2,11.2-8.4,17.4-4.9c0.1,0.1,0.2,0.1,0.3,0.2c3,1.7,5.2,4.6,6.1,8l0.4,1.7
			c0.1,0.3-0.1,0.6-0.4,0.6l0,0l-18.2,4.9c-0.3,0.1-0.4,0.4-0.4,0.6c0,0.1,0,0.1,0.1,0.2c0.8,1.2,2,2.1,3.3,2.6
			c1.5,0.6,3,0.6,4.5,0.2c2.2-0.5,4-2,4.9-4.1c0.1-0.2,0.4-0.4,0.6-0.3L494.8,36.6z M488.4,28.2c0.3-0.1,0.4-0.4,0.4-0.6
			c0-0.1-0.1-0.1-0.1-0.2c-0.8-1-1.9-1.7-3.1-2.1c-3-1.1-6.4-0.2-8.4,2.2c-0.8,1-1.3,2.1-1.6,3.4c0,0.3,0.1,0.5,0.4,0.6
			c0.1,0,0.1,0,0.2,0L488.4,28.2z"/>
		<path class="st1" d="M505.6,20.8c0,0.3,0.2,0.5,0.5,0.5c0.1,0,0.2,0,0.3-0.1c1.7-1.1,3.7-1.6,5.8-1.6h2.2c0.3,0,0.5,0.2,0.5,0.5
			l0,0v4.3c0,0.3-0.2,0.5-0.5,0.5l0,0h-2.2c-1.8,0-3.5,0.8-4.7,2.2c-1.3,1.5-2,3.4-1.9,5.3v12.4c0,0.3-0.2,0.5-0.5,0.5l0,0h-4.3
			c-0.3,0-0.5-0.2-0.5-0.5l0,0V20.1c0-0.3,0.2-0.5,0.5-0.5l0,0h4.3c0.3,0,0.5,0.2,0.5,0.5l0,0V20.8z"/>
		<path class="st1" d="M522.3,31.5c0,1.8,0.7,3.5,1.9,4.8c2.4,2.6,6.5,2.7,9.1,0.2c0.1-0.1,0.1-0.1,0.2-0.2c1.3-1.3,2-3,1.9-4.8
			c0-0.2,0-0.4,0-0.6V20.1c0-0.3,0.2-0.5,0.5-0.5l0,0h4.4c0.3,0,0.5,0.2,0.5,0.5l0,0v21.2c0,3.4-1.2,6.7-3.6,9.2
			c-2.1,2.4-5.1,3.7-8.2,3.7c-2.5,0-4.9-0.9-6.9-2.3c-1.9-1.3-3.4-3.1-4.3-5.1c-0.1-0.3,0-0.6,0.3-0.7l0,0l4.1-1.6
			c0.2-0.1,0.5,0,0.6,0.3c0.6,1.1,1.4,2,2.3,2.7c1.1,0.8,2.5,1.3,3.8,1.4c1.7,0,3.3-0.8,4.4-2.2c0.9-1.1,1.6-2.4,1.8-3.8
			c0-0.3-0.1-0.5-0.4-0.6c-0.1,0-0.2,0-0.3,0.1c-4.6,2.5-10.4,1.6-14.1-2.1c-2.3-2.3-3.6-5.4-3.5-8.6V20.1c0-0.3,0.2-0.5,0.5-0.5
			l0,0h4.4c0.3,0,0.5,0.2,0.5,0.5l0,0L522.3,31.5z"/>
		<path class="st1" d="M543.7,42.6h2.1v0.2h-0.9v2.6h-0.3v-2.6h-0.9L543.7,42.6z"/>
		<path class="st1" d="M546.1,45.4v-2.8h0.4l0.9,2.5l0,0l0.9-2.5h0.4v2.8h-0.3v-2.5l0,0l-0.9,2.5h-0.3l-0.9-2.5l0,0v2.5H546.1z"/>
		<path class="st1" d="M308.7,32.9l-1.4-0.5l1.4-0.5c3-1,6.1-6.5,6.7-7.6c0.3-0.6,0.1-1.4-0.5-1.8c0,0,0,0-0.1,0
			c-1.1-0.5-6.9-3.2-9.9-2.2l-1.4,0.5l0.9-1.2c1.8-2.5,1.1-8.8,0.9-10.1c-0.1-0.7-0.8-1.2-1.5-1.1c0,0,0,0-0.1,0
			c-1.2,0.2-7.5,1.5-9.3,4l-0.9,1.2v-1.5c0-3.1-4.3-7.8-5.2-8.7c-0.5-0.5-1.3-0.5-1.8,0l0,0c-0.9,0.9-5.2,5.6-5.2,8.7v1.5l-0.9-1.2
			c-1.8-2.5-8.1-3.8-9.3-4c-0.7-0.1-1.4,0.3-1.5,1.1c0,0,0,0,0,0.1c-0.2,1.2-0.9,7.6,0.9,10.1l0.9,1.2l-1.4-0.5
			c-3-1-8.7,1.7-9.9,2.2c-0.6,0.3-0.9,1.1-0.6,1.7c0,0,0,0,0,0.1c0.6,1.1,3.7,6.6,6.7,7.6l1.4,0.5l-1.4,0.5c-3,1-6.1,6.5-6.7,7.6
			c-0.3,0.6-0.1,1.4,0.5,1.8c0,0,0,0,0.1,0c1.1,0.5,6.9,3.2,9.9,2.2l1.4-0.5l-0.9,1.2c-1.8,2.5-1.1,8.8-0.9,10.1
			c0.1,0.7,0.8,1.2,1.5,1.1c0,0,0,0,0.1,0c1.2-0.2,7.5-1.5,9.3-4l0.9-1.2v1.5c0,3.1,4.3,7.8,5.2,8.7c0.5,0.5,1.3,0.5,1.8,0l0,0
			c0.9-0.9,5.2-5.6,5.2-8.7v-1.5l0.9,1.2c1.8,2.5,8.1,3.8,9.3,4c0.7,0.1,1.4-0.3,1.5-1.1c0,0,0,0,0-0.1c0.2-1.2,0.9-7.6-0.9-10.1
			l-0.9-1.2l1.4,0.5c3,1,8.7-1.7,9.9-2.2c0.6-0.3,0.9-1.1,0.6-1.7c0,0,0,0,0-0.1C314.8,39.4,311.7,33.9,308.7,32.9z M305.8,22.9
			c1.2-0.4,4.3,0.5,6.7,1.5c-1.3,2.2-3.3,4.7-4.5,5.1l-5.2,1.7l0,0l-3.4,1.1c0-1.5-0.3-3-0.9-4.4l2.5-3.5L305.8,22.9z M287.5,41.6
			c-5,0-9.1-4.1-9.1-9.1s4.1-9.1,9.1-9.1s9.1,4.1,9.1,9.1l0,0C296.7,37.5,292.6,41.6,287.5,41.6z M296.6,14c0.8-1,3.8-2.1,6.3-2.7
			c0.2,2.6,0.1,5.8-0.6,6.8l-3.2,4.4l0,0l-2.1,2.9c-1.4-1.9-3.4-3.3-5.7-4.1l2.1-2.9l0,0L296.6,14z M287.5,6.4
			c1.7,2,3.5,4.6,3.5,5.9v5.1l-2.6,3.5c-0.3,0-0.6,0-1,0c-0.3,0-0.6,0-1,0l-2.6-3.5v-5.1C284,10.9,285.9,8.3,287.5,6.4z M272.2,11.3
			c2.5,0.6,5.5,1.6,6.3,2.7l3.2,4.4l0,0l2.1,2.9c-2.3,0.8-4.2,2.2-5.7,4.1l-2.1-2.9l0,0l-3.2-4.4C272.1,17.1,272,13.9,272.2,11.3z
			 M267.2,29.5c-1.2-0.4-3.2-2.9-4.5-5.1c2.4-1,5.4-1.9,6.7-1.5l4.8,1.6l2.5,3.5c-0.6,1.4-0.9,2.9-0.9,4.4l-3.4-1.1l0,0L267.2,29.5z
			 M269.4,42.1c-1.2,0.4-4.3-0.5-6.7-1.5c1.3-2.2,3.3-4.7,4.5-5.1l4.8-1.6l4.1,1.3c0.1,0.6,0.3,1.2,0.6,1.8l-2.5,3.5L269.4,42.1z
			 M278.5,50.9c-0.8,1-3.8,2.1-6.3,2.7c-0.2-2.6-0.2-5.7,0.6-6.8l3.2-4.4l0,0l2.1-2.9c1.4,1.9,3.4,3.3,5.7,4.1l-2.1,2.9l0,0
			L278.5,50.9z M287.5,58.6c-1.7-2-3.5-4.6-3.5-5.9v-5.1l2.6-3.5c0.3,0,0.6,0,1,0c0.3,0,0.6,0,1,0l2.6,3.5v5.1
			C291,54.1,289.2,56.7,287.5,58.6z M302.9,53.6c-2.5-0.6-5.5-1.6-6.3-2.7l-3.2-4.4l0,0l-2.1-2.9c2.3-0.8,4.2-2.2,5.7-4.1l2.1,2.9
			l0,0l3.2,4.4C303.1,47.9,303.1,51.1,302.9,53.6L302.9,53.6z M305.7,42.1l-4.8-1.6l-2.5-3.5c0.2-0.6,0.4-1.2,0.6-1.8l4.1-1.3
			l4.8,1.6c1.2,0.4,3.2,2.9,4.5,5.1C310,41.6,307,42.5,305.7,42.1L305.7,42.1z"/>
	</g>
</g>
</svg>
