<?xml version="1.0" encoding="utf-8"?>
<!-- Generator: Adobe Illustrator 24.0.0, SVG Export Plug-In . SVG Version: 6.00 Build 0)  -->
<svg version="1.1" id="Layer_1" xmlns="http://www.w3.org/2000/svg" xmlns:xlink="http://www.w3.org/1999/xlink" x="0px" y="0px"
	 viewBox="0 0 342 77" style="enable-background:new 0 0 342 77;" xml:space="preserve">
<style type="text/css">
	.st0{fill:none;}
	.st1{enable-background:new    ;}
	.st2{fill:#FFC81A;}
</style>
<rect x="4.8" y="7.2" class="st0" width="332.3" height="68.7"/>
<g class="st1">
	<path class="st2" d="M25.7,14.7c-2.2,0-4.1,0.7-5.7,2.1c-1.5,1.4-2.3,3-2.3,5s0.6,3.4,1.8,4.3c1.1,0.8,3.5,1.8,7.2,2.8
		c4.5,1.2,7.8,2.6,9.8,4.1c3.6,2.6,5.3,6.3,5.3,11.1c0,4.2-1.6,7.8-4.7,10.8c-3.2,3-7,4.5-11.5,4.5c-4.5,0-8.3-1.5-11.5-4.5
		c-3.2-3-4.7-6.6-4.7-10.8h8.2c0,1.9,0.8,3.6,2.3,5c1.6,1.4,3.5,2.1,5.7,2.1c2.2,0,4.1-0.7,5.7-2.1c1.5-1.4,2.3-3,2.3-5
		c0-2.1-0.7-3.6-2-4.6c-1.1-0.8-3.5-1.7-7.1-2.7c-4.5-1.2-7.8-2.6-9.8-4c-3.5-2.6-5.3-6.2-5.3-10.9c0-4.2,1.6-7.8,4.7-10.8
		c3.2-3,7-4.5,11.5-4.5C30.2,6.5,34,8,37.2,11c3.2,3,4.7,6.6,4.7,10.8h-8.2c0-1.9-0.8-3.6-2.3-5C29.8,15.4,27.9,14.7,25.7,14.7z"/>
	<path class="st2" d="M82.8,58.5h-8v-2.6c-2.8,2-5.8,3-9.1,3c-4.7,0-8.7-1.9-12.1-5.7c-3.3-3.8-5-8.4-5-13.7V19.8h7.9v19.7
		c0,3.1,0.9,5.8,2.7,8.1c1.8,2.2,3.9,3.3,6.4,3.3c2.5,0,4.7-1.1,6.5-3.3c1.8-2.2,2.7-4.9,2.7-8V19.8h8V58.5z"/>
	<path class="st2" d="M133.9,19c4.7,0,8.7,1.9,12.1,5.7c3.3,3.8,5,8.3,5,13.7v20.1h-8V38.4c0-3.1-0.9-5.8-2.7-8.1
		c-1.8-2.2-3.9-3.3-6.4-3.3c-2.5,0-4.7,1.1-6.5,3.3c-1.8,2.2-2.7,4.9-2.7,8.1v20.1h-8V38.4c0-3.1-0.9-5.8-2.7-8.1
		c-1.8-2.2-3.9-3.3-6.5-3.3c-2.5,0-4.7,1.1-6.4,3.3c-1.8,2.2-2.7,4.9-2.7,8.1v20.1h-8V19.8h8V22c2.8-2,5.8-3,9.1-3
		c5.3,0,9.7,2.3,13.1,7C124.2,21.3,128.6,19,133.9,19z"/>
	<path class="st2" d="M202,19c4.7,0,8.7,1.9,12.1,5.7c3.3,3.8,5,8.3,5,13.7v20.1h-8V38.4c0-3.1-0.9-5.8-2.7-8.1
		c-1.8-2.2-3.9-3.3-6.4-3.3c-2.5,0-4.7,1.1-6.5,3.3c-1.8,2.2-2.7,4.9-2.7,8.1v20.1h-8V38.4c0-3.1-0.9-5.8-2.7-8.1
		c-1.8-2.2-3.9-3.3-6.5-3.3c-2.5,0-4.7,1.1-6.4,3.3c-1.8,2.2-2.7,4.9-2.7,8.1v20.1h-8V19.8h8V22c2.8-2,5.8-3,9.1-3
		c5.3,0,9.7,2.3,13.1,7C192.3,21.3,196.7,19,202,19z"/>
	<path class="st2" d="M261.2,50.1c-1.6,2.5-3.7,4.5-6.3,6c-3,1.8-6.3,2.7-9.8,2.7c-5.4,0-9.9-1.9-13.7-5.8c-3.8-3.8-5.7-8.5-5.7-14
		s1.9-10.1,5.7-14c3.8-3.9,8.4-5.8,13.7-5.8c5.3,0,9.9,1.9,13.7,5.8c3.8,3.8,5.7,8.5,5.7,14v3.3h-30c0.7,2.6,2,4.6,4.1,6.2
		c1.9,1.4,4.1,2.1,6.5,2.1c3.9,0,6.9-1.6,9.1-4.7L261.2,50.1z M255.7,35c-0.8-2.2-2.2-4-4.1-5.4c-1.9-1.4-4.1-2.1-6.5-2.1
		s-4.6,0.7-6.5,2.1c-1.9,1.4-3.3,3.2-4.1,5.4H255.7z"/>
	<path class="st2" d="M279,23c3-2.2,6.3-3.2,9.9-3.2h4v8h-4c-2.7,0-5.1,1.1-7,3.3c-1.9,2.2-2.9,4.9-2.9,8v19.4h-8V19.8h8V23z"/>
	<path class="st2" d="M304,37.6c0,2.8,1,5.2,2.9,7.1c1.9,2,4.2,3,7,3c2.7,0,5-1,7-3c1.9-2,2.9-4.4,2.9-7.2c0-0.3,0-0.6,0-0.9v-17
		h8.2v32.5c-0.1,5.6-1.9,10.2-5.4,13.9c-3.5,3.7-7.6,5.6-12.3,5.6c-3.6,0-7-1.2-10.4-3.5c-3.1-2.2-5.4-5-6.9-8.4l7.6-2.9
		c0.9,1.9,2.2,3.5,3.9,4.7c2,1.4,3.9,2,5.8,2c2.5,0,4.7-1.1,6.6-3.2c1.7-2,2.7-4.4,2.9-7.3c-3,2-6.2,3-9.8,3c-5,0-9.2-1.8-12.7-5.3
		s-5.3-7.9-5.3-12.9V19.8h8.2V37.6z"/>
</g>
</svg>
