<?xml version="1.0" encoding="utf-8"?>
<!-- Generator: Adobe Illustrator 24.0.1, SVG Export Plug-In . SVG Version: 6.00 Build 0)  -->
<svg version="1.1" id="Layer_1" xmlns="http://www.w3.org/2000/svg" xmlns:xlink="http://www.w3.org/1999/xlink" x="0px" y="0px"
	 viewBox="0 0 492.4 65" style="enable-background:new 0 0 492.4 65;" xml:space="preserve">
<style type="text/css">
	.st0{enable-background:new    ;}
	.st1{fill:#FFC71A;}
</style>
<g class="st0">
	<path class="st1" d="M36.6,7.2v8h-11v43.3h-8V15.1h-11v-8L36.6,7.2L36.6,7.2z"/>
	<path class="st1" d="M60.1,19.3c4.9,0,9.1,1.9,12.6,5.7S78,33.3,78,38.7v19.8h-8V38.7c0-3.1-1-5.8-2.9-8.1c-1.9-2.2-4.3-3.3-7-3.3
		s-5.1,1.1-7,3.3s-2.9,4.9-2.9,8.1v19.8h-8V7.2h8v15.4C53.2,20.4,56.5,19.3,60.1,19.3z"/>
	<path class="st1" d="M119.4,50.1c-1.6,2.5-3.7,4.5-6.3,6c-3,1.8-6.3,2.7-9.8,2.7c-5.4,0-9.9-1.9-13.7-5.8c-3.8-3.8-5.7-8.5-5.7-14
		s1.9-10.1,5.7-14c3.8-3.9,8.4-5.8,13.7-5.8c5.3,0,9.9,1.9,13.7,5.8c3.8,3.8,5.7,8.5,5.7,14v3.3h-30c0.7,2.6,2,4.6,4.1,6.2
		c1.9,1.4,4.1,2.1,6.5,2.1c3.9,0,6.9-1.6,9.1-4.7L119.4,50.1z M113.8,35c-0.8-2.2-2.2-4-4.1-5.4s-4.1-2.1-6.5-2.1s-4.6,0.7-6.5,2.1
		s-3.3,3.2-4.1,5.4H113.8z"/>
	<path class="st1" d="M191.8,7.2l-24.6,26l24,25.3h-11l-18.4-19.4v19.4h-7.9V7.2h7.9v20l18.9-20C180.7,7.2,191.8,7.2,191.8,7.2z"/>
	<path class="st1" d="M202.8,8.1c0.8,0.9,1.3,1.9,1.3,3.1s-0.4,2.3-1.3,3.1s-1.9,1.3-3.1,1.3c-1.2,0-2.3-0.4-3.1-1.3
		c-0.9-0.9-1.3-1.9-1.3-3.1s0.4-2.3,1.3-3.1c0.9-0.9,1.9-1.3,3.1-1.3C200.9,6.8,202,7.2,202.8,8.1z M195.7,58.5h8V19.8h-8V58.5z"/>
	<path class="st1" d="M229.7,19c4.9,0,9.1,1.9,12.6,5.7s5.2,8.3,5.2,13.7v20.1h-7.9V38.3c0-3.1-1-5.8-2.9-8.1
		c-1.9-2.2-4.3-3.3-7-3.3s-5.1,1.1-7,3.3s-2.9,4.9-2.9,8.1v20.1h-8V19.8h8v2.5C222.8,20.1,226,19,229.7,19z"/>
	<path class="st1" d="M292.9,58.5h-8.2v-3.3c-3.4,2.5-7.1,3.8-11.3,3.8c-5.4,0-9.9-1.9-13.7-5.8c-3.8-3.8-5.7-8.5-5.7-13.9
		c0-5.5,1.9-10.1,5.7-14c3.8-3.9,8.4-5.8,13.7-5.8c4.1,0,7.9,1.2,11.3,3.7v-16h8.2V58.5z M273.4,50.9c3.1,0,5.8-1.1,8-3.4
		c2.2-2.3,3.3-5,3.3-8.2s-1.1-6-3.3-8.2c-2.2-2.3-4.9-3.4-8-3.4s-5.8,1.1-8,3.4s-3.3,5-3.3,8.2s1.1,5.9,3.3,8.2
		C267.6,49.7,270.3,50.9,273.4,50.9z"/>
	<path class="st1" d="M373.9,49.4l2.1-1.8l3.6,4.1l-2,1.8c-4.3,3.8-8.4,5.8-12.3,5.8c-0.3,0-0.6,0-0.9,0c-1.8-0.1-3.6-0.7-5.3-1.7
		c-2.9,1.1-5.9,1.7-9,1.7c-7.1,0-13.3-2.6-18.4-7.8s-7.6-11.4-7.6-18.6c0-7.3,2.5-13.5,7.6-18.6c5.1-5.2,11.2-7.8,18.4-7.8
		c7.1,0,13.2,2.6,18.3,7.8c5.1,5.1,7.6,11.3,7.6,18.6c0,8.7-3.4,15.7-10.2,21C368.2,53.6,370.9,52.1,373.9,49.4z M350.1,14.7
		c-4.9,0-9.1,1.8-12.6,5.3c-3.4,3.6-5.2,7.8-5.2,12.8c0,3.8,1,7.3,3.1,10.4l0.5-0.7c1-1.4,2.7-2.5,5-3.1s4.6-0.5,6.9,0.4
		c1.9,0.7,4.3,2.9,7.3,6.5c1.1,1.3,1.9,2.3,2.5,3c3-1.5,5.5-3.7,7.3-6.6c1.9-3,2.8-6.3,2.8-9.8c0-5-1.7-9.3-5.2-12.8
		C359.2,16.4,355,14.7,350.1,14.7z M339.5,47.3c3.1,2.4,6.7,3.6,10.6,3.6c0.6,0,1.1,0,1.8-0.1c-0.3-0.3-0.6-0.7-0.9-1.1
		c-2.4-2.9-4-4.6-5-4.9c-1.2-0.5-2.4-0.6-3.6-0.2c-1,0.3-1.8,0.8-2.4,1.6C339.8,46.6,339.6,47,339.5,47.3z"/>
	<path class="st1" d="M417.1,58.5h-8v-2.6c-2.8,2-5.8,3-9.1,3c-4.7,0-8.7-1.9-12.1-5.7c-3.3-3.8-5-8.4-5-13.7V19.8h7.9v19.7
		c0,3.1,0.9,5.8,2.7,8.1c1.8,2.2,3.9,3.3,6.4,3.3s4.7-1.1,6.5-3.3s2.7-4.9,2.7-8V19.8h8V58.5z"/>
	<path class="st1" d="M432.3,8.1c0.8,0.9,1.3,1.9,1.3,3.1s-0.4,2.3-1.3,3.1s-1.9,1.3-3.1,1.3s-2.3-0.4-3.1-1.3s-1.3-1.9-1.3-3.1
		s0.4-2.3,1.3-3.1s1.9-1.3,3.1-1.3S431.5,7.2,432.3,8.1z M425.2,58.5h8V19.8h-8V58.5z"/>
	<path class="st1" d="M473.1,25.2l-21.6,25.3H473v8h-34.1V53l21.5-25.3h-21.6v-8H473v5.5H473.1z"/>
</g>
<g>
	<path class="st1" d="M484.3,50.9c0.9,0.9,1.3,1.9,1.3,3.1c0,1.2-0.4,2.3-1.3,3.1c-0.9,0.9-1.9,1.3-3.1,1.3s-2.3-0.4-3.1-1.3
		c-0.9-0.9-1.3-1.9-1.3-3.1c0-1.2,0.4-2.3,1.3-3.1s1.9-1.3,3.1-1.3S483.4,50,484.3,50.9z M481.2,50.6c-0.9,0-1.8,0.3-2.4,1
		c-0.7,0.7-1,1.5-1,2.4c0,0.9,0.3,1.8,1,2.4c0.7,0.7,1.5,1,2.4,1s1.8-0.3,2.4-1c0.7-0.7,1-1.5,1-2.4c0-0.9-0.3-1.8-1-2.4
		C482.9,50.9,482.1,50.6,481.2,50.6z M480.7,54.6v2.1h-1.1v-5.4h1.8c0.5,0,0.9,0.2,1.1,0.5c0.2,0.3,0.4,0.6,0.4,1
		c0,0.5-0.1,0.9-0.4,1.2c-0.3,0.3-0.5,0.4-0.8,0.4l1.4,2.3H482L480.7,54.6z M480.9,53.4c0.5,0,0.8-0.1,0.9-0.2
		c0.1-0.1,0.1-0.2,0.1-0.4c0-0.2,0-0.3-0.1-0.4c-0.1-0.1-0.2-0.2-0.3-0.2h-0.8v1.1H480.9z"/>
</g>
</svg>
